<?xml version="1.0" encoding="utf-8"?>
<!-- Generator: Adobe Illustrator 23.0.5, SVG Export Plug-In . SVG Version: 6.00 Build 0)  -->
<svg version="1.1"
	 id="svg2" inkscape:version="0.91 r13725" sodipodi:docname="Ettmetal.svg" xmlns:cc="http://creativecommons.org/ns#" xmlns:dc="http://purl.org/dc/elements/1.1/" xmlns:inkscape="http://www.inkscape.org/namespaces/inkscape" xmlns:rdf="http://www.w3.org/1999/02/22-rdf-syntax-ns#" xmlns:sodipodi="http://sodipodi.sourceforge.net/DTD/sodipodi-0.dtd" xmlns:svg="http://www.w3.org/2000/svg"
	 xmlns="http://www.w3.org/2000/svg" xmlns:xlink="http://www.w3.org/1999/xlink" x="0px" y="0px" viewBox="0 0 800 670.4"
	 style="enable-background:new 0 0 800 670.4;" xml:space="preserve">
<style type="text/css">
	.st0{fill:#FFFFFF;}
</style>
<sodipodi:namedview  bordercolor="#666666" borderopacity="1.0" fit-margin-bottom="0" fit-margin-left="0" fit-margin-right="0" fit-margin-top="0" id="base" inkscape:current-layer="layer1" inkscape:cx="513.26746" inkscape:cy="645.91527" inkscape:document-units="px" inkscape:pageopacity="0.0" inkscape:pageshadow="2" inkscape:window-height="705" inkscape:window-maximized="1" inkscape:window-width="1366" inkscape:window-x="-8" inkscape:window-y="-8" inkscape:zoom="0.98994949" pagecolor="#ffffff" showgrid="false">
	</sodipodi:namedview>
<g id="layer1" transform="translate(186.99904,-96.697681)" inkscape:groupmode="layer" inkscape:label="Layer 1">
	<path id="path4204" inkscape:connector-curvature="0" class="st0" d="M171.1,764c0.1-8.9,2.8-12.9,12.7-18.6l10.3-5.9l3.4-52.1
		c1.8-28.7,3.8-56.7,4.3-62.3l0.9-10.2l-7.4-1.2c-4.1-0.7-10.7-1.2-14.7-1.2c-11.9,0-40.8-7.7-64-17c-11.9-4.8-22.1-8.2-22.7-7.7
		c-0.6,0.6-7.9,23-16.4,49.9l-15.3,48.8l6.5,13.1c6.1,12.4,7.3,20,3,20c-1,0-18.5-10.3-38.8-23c-20.3-12.6-38.1-23.4-39.6-24
		c-4.9-1.9-2.9-3.7,8.2-7.5l10.9-3.7l16.1-32.9c8.8-18.1,19.2-39.8,23.1-48.3l7.1-15.4l-9.7-8.3c-32.1-27.4-55-59.9-70.8-100.1
		c-22.6-57.6-20.6-129.2,5.4-189.6c8.3-19.3,30-51.8,46.6-69.7c14.8-16,61.8-50.8,68.6-50.8c0.8,0-3.8,3.9-10.2,8.6
		c-15.5,11.5-38.1,35.2-47.4,49.8c-12,18.8-24.3,46.5-29.1,65.7c-3.8,15-4.5,22.7-4.3,50.5c0.1,28.5,0.8,35.2,5.2,51.8
		c11.5,43.3,37.7,84.1,70.7,110.1l10.7,8.5l16.1-33.1c8.9-18.2,26.3-54.3,38.7-80.2c12.4-25.9,22.8-46.8,23.2-46.5
		c0.3,0.3-11.5,39.1-26.2,86.2c-14.7,47.1-26.7,86.4-26.7,87.3c0,2,22.5,11.1,35.4,14.3c12.8,3.2,40.2,7.9,46.4,7.9l5.5,0l0-25.3
		c0-13.9,1.3-62.8,2.9-108.6c1.6-45.8,3-96.2,3.2-112.1c0.3-36.1,2.8-26,4.6,18.8c2.9,70.4,11,225.7,11.9,226.6
		c0.3,0.3,7.9-0.8,16.9-2.5c34.5-6.5,72.4-20,70.7-25.1c-0.5-1.4-5.5-17.3-11-35.3C289.2,410,266.6,338,265.1,333.7
		c-5-13.9,6.9,9.3,38.8,75.9c20,41.7,37.1,75.9,37.9,75.9s8.5-7,17.1-15.5c61.1-60.5,78.6-151.2,44.5-230.3
		c-13.7-31.8-42.6-68.2-67.2-84.6c-16.8-11.2-17.1-12.2-1.5-4.1c62.3,32.4,110.6,100.9,123.1,174.7c4.9,28.9,3.1,72.2-4.1,100.1
		c-11.7,45-34.2,85.1-65.5,116.4c-7,7-12.8,13.5-12.8,14.3c0,0.8,10.9,24.4,24.3,52.4l24.3,51l11.4,4.5c6.3,2.5,11.4,5,11.3,5.5
		c-0.2,2.3-79.4,49.7-81.2,48.6c-3.2-2-2.4-6.2,3.9-20l5.9-13l-15.9-50.9c-8.7-28-16.3-52.1-16.8-53.4c-0.6-1.8-4.7-0.6-14.3,4.2
		c-16.4,8.2-50.6,19.2-75.5,24.2l-18.5,3.7l1.3,12.9c0.7,7.1,2.5,24.1,3.9,37.7c1.5,13.6,3.8,36,5.1,49.7l2.4,24.9l11,5.8
		c8.8,4.7,11.5,7.3,13.5,13.2l2.5,7.4h-21.4c-11.8,0-34.9,0.6-51.5,1.3C172.4,767.7,171.1,767.6,171.1,764L171.1,764z M-93.7,569.4
		c-19.2-9.9-43.8-31.9-56.4-50.2c-15.1-22-27.7-52.5-34.1-82.3c-4-18.8-3.4-79.6,0.9-99.6c9-41.2,28.3-85,50-114
		c31.4-41.8,76.9-74.1,118.3-83.9c18-4.2,22-3.9,12.5,1.2c-15.4,8.2-32.2,21.5-47.1,37.3c-52.1,55.4-81.8,143.4-72.9,216.4
		c5.9,48.6,25.4,84.7,56,103.5c5.2,3.2,9.5,6.2,9.5,6.8c0,0.5-3,8.2-6.7,17.2c-7.8,19-17.1,46.2-17.1,50.2
		C-80.8,575.7-82.2,575.4-93.7,569.4L-93.7,569.4z M500.3,566.4c-2.8-10.8-10-32.4-16.6-49.5l-5.1-13.2l4.4-2.7
		c2.4-1.5,7-4,10.2-5.6c11.4-5.8,27.7-24.5,36.4-41.9c10.9-21.7,15.5-38,18.6-66.2c5.8-52.9-10-121.1-39.1-169.1
		c-21.2-34.9-40.3-55.6-68.1-74c-14.7-9.7-14.9-9.9-7.1-8.6c32.2,5.5,71.1,27.3,98.9,55.4c20,20.2,30,33.3,42.5,55.5
		c67.2,119.2,42.1,265.5-55.1,320.8C504.4,576.2,502.8,576.1,500.3,566.4L500.3,566.4z M195.9,179.2c-27.2-11.9-35.3-44.7-16.5-67.4
		c19.7-23.8,58.2-18.6,71.3,9.7c10.1,21.8-0.6,48.3-23.4,57.8C219.1,182.7,203.6,182.6,195.9,179.2L195.9,179.2z"/>
</g>
</svg>
